<svg version="1.2" xmlns="http://www.w3.org/2000/svg" viewBox="0 0 29 50" width="29" height="50">
	<style>
		tspan { white-space:pre } 
		.s0 { fill: #005088 } 
	</style>
	<g id="Layer 1">
		<g id="&lt;Group&gt;">
			<g id="&lt;Group&gt;">
				<path id="&lt;Compound Path&gt;" fill-rule="evenodd" class="s0" d="m15.49 0.25c0.6 0.16 1.23 0.21 1.83 0.36 1.36 0.33 2.62 0.98 3.77 1.76 0.72-0.23 1.33-0.59 2.11-0.66 4.89-0.45 7.29 5.74 3.44 8.67-0.26 0.19-0.92 0.43-0.96 0.68l0.01 10.61c1.08 0.41 2.16 1.66 2.55 2.73 0.46 1.24 0.53 4.39 0.1 5.62-0.42 1.2-1.45 2.2-2.65 2.64 0.05 0.51-0.16 2.77 0.08 3.04 0.1 0.1 0.91 0.48 1.16 0.68 0.9 0.71 1.56 1.95 1.66 3.09 0.14 1.69 0.18 5.84-0.47 7.3-2.16 4.83-9.41 3.78-10.11-1.42l-6.92-0.01c-0.76 4.97-7.51 6.29-9.97 1.82-0.88-1.61-0.82-5.79-0.66-7.69 0.1-1.14 0.76-2.38 1.66-3.09 0.25-0.2 1.06-0.58 1.16-0.68 0.24-0.27 0.02-2.53 0.08-3.04-1.2-0.44-2.23-1.44-2.65-2.64-0.44-1.23-0.36-4.38 0.09-5.62 0.4-1.07 1.47-2.32 2.56-2.73l0.01-10.61c-0.04-0.21-0.84-0.59-1.12-0.82-3.66-3-1.19-8.97 3.59-8.53 0.79 0.07 1.39 0.43 2.12 0.66 1.15-0.78 2.41-1.43 3.77-1.76 0.56-0.14 1.25-0.31 1.82-0.36zm8.62 21.03l0.04-11.07c0.52-0.86 1.41-0.79 2.11-1.67 2.09-2.63-0.76-6.37-3.78-4.94 0.59 0.59 2.24 2.39 1.88 3.24-0.19 0.46-0.88 0.52-1.25 0.2-0.33-0.28-0.95-1.47-1.36-1.94-3.79-4.33-10.75-4.33-14.5 0.05-0.41 0.48-0.91 1.5-1.26 1.84-0.41 0.39-1.24 0.33-1.36-0.29-0.15-0.84 1.35-2.52 1.94-3.1-3.03-1.43-5.87 2.31-3.78 4.94 0.7 0.88 1.59 0.81 2.11 1.67l0.02 11.03c0.02 0.09 0.87 0.08 0.79 0.98-0.07 0.74-0.94 0.61-1.46 0.77-0.83 0.26-1.51 1.01-1.85 1.79 6.84-3.43 10.04 7.31 2.52 8.15v2.36c0.03 0.14 1.04 0.2 0.76 1.16-0.18 0.6-0.97 0.48-1.36 0.58-1.75 0.43-2.44 1.95-2.31 3.66 0.38-0.16 0.64-0.47 1.01-0.7 3.27-1.99 7.4 0.03 8.06 3.71l0.11 0.08 6.78-0.08c0.67-3.66 4.71-5.67 8-3.74l1.06 0.73c0.14-1.71-0.55-3.23-2.3-3.66-0.39-0.1-1.18 0.02-1.36-0.58-0.28-0.96 0.72-1.02 0.76-1.16l-0.01-2.36c-3.19-0.11-5.25-3.24-3.96-6.24 0.78-1.8 2.8-2.84 4.75-2.54 0.62 0.1 1.15 0.44 1.74 0.63-0.34-0.78-1.02-1.53-1.85-1.79-0.62-0.19-1.52-0.01-1.46-0.97 0.05-0.74 0.67-0.61 0.77-0.74zm-19.4 4.4c-3.62 0.18-3.43 5.7 0.16 5.7 3.76 0 3.72-5.88-0.16-5.7zm19.3 0c-3.6 0.18-3.44 5.7 0.16 5.7 3.75 0 3.74-5.89-0.16-5.7zm-18.52 15.14c-5.2 0.42-4.07 8.51 1.11 7.41 4.48-0.95 3.54-7.79-1.11-7.41zm17.45 0c-5.2 0.42-4.08 8.49 1.11 7.41 4.46-0.93 3.56-7.79-1.11-7.41z"/>
				<path id="&lt;Path&gt;" class="s0" d="m7.13 18.11c0.59-0.12 1.35 0.79 1.84 1.13 3.15 2.23 7.29 2.38 10.59 0.35 0.46-0.29 1.7-1.41 2.02-1.48 0.46-0.1 0.99 0.31 0.96 0.79-0.03 0.63-1.47 1.61-2.01 1.95-3.67 2.33-8.34 2.33-12.01 0-0.52-0.33-1.93-1.29-2-1.88-0.05-0.36 0.25-0.78 0.61-0.86z"/>
				<path id="&lt;Path&gt;" class="s0" d="m11.1 35.95c1.01-0.2 0.91 1.06 1.12 1.66 0.72 2.06 3.79 2.11 4.58 0.07 0.23-0.6 0.17-2.15 1.29-1.67 0.99 0.43 0.23 2.3-0.19 2.97-1.52 2.39-5.24 2.39-6.75 0-0.42-0.66-1.26-2.77-0.05-3.03z"/>
				<path id="&lt;Path&gt;" class="s0" d="m13.82 25.3c0.55-0.08 1.31-0.15 1.46 0.53 0.26 1.15-1.22 0.91-1.95 1.3-2.11 1.11-1.07 4.76-1.35 6.7-0.45 0.86-1.42 0.63-1.53-0.36-0.12-1.09-0.1-4.18 0.14-5.2 0.34-1.42 1.77-2.77 3.23-2.97z"/>
				<path id="&lt;Path&gt;" class="s0" d="m15.3 15.09c0.83 0.1 2.31-1.7 2.83-0.46 0.37 0.85-0.85 1.47-1.5 1.74-1.58 0.65-3.45 0.52-4.91-0.37-0.55-0.33-1.37-1.04-0.6-1.65 0.79-0.61 1.73 0.83 2.63 0.74v-2.18c0-0.15 0.58-0.52 0.81-0.51 0.19 0.01 0.74 0.38 0.74 0.51z"/>
				<path id="&lt;Path&gt;" class="s0" d="m12.74 5.16c-0.25 0.26-1.24 0.58-1.64 0.83-1.57 0.98-1.81 1.9-2.65 3.36-0.43 0.76-1.41 0.64-1.5-0.13-0.09-0.87 1.19-2.71 1.8-3.35 0.6-0.62 2.55-2.04 3.4-2.04 0.75 0 1.11 0.81 0.59 1.33z"/>
			</g>
		</g>
	</g>
</svg>