<svg version="1.2" xmlns="http://www.w3.org/2000/svg" viewBox="0 0 202 39" width="202" height="39">
	<style>
		tspan { white-space:pre } 
		.s0 { fill: #005088 } 
		.s1 { fill: #4e82bc } 
		.s2 { fill: #1eb1bc } 
		.t3 { font-size: 75px;fill: #005088;font-weight: 500;font-family: "Outfit-Medium", "Outfit" } 
	</style>
	<g id="Layer 1">
		<g id="&lt;Group&gt;">
			<g id="&lt;Group&gt;">
				<path id="&lt;Path&gt;" class="s0" d="m15.75 21.46h4.34c0.92 0 1.67-0.75 1.67-1.68v-4.33c0-0.93-0.75-1.68-1.67-1.68h-4.34c-0.92 0-1.67 0.75-1.67 1.68v4.33c0 0.93 0.75 1.68 1.67 1.68z"/>
				<path id="&lt;Path&gt;" class="s1" d="m22.47 14.74h4.34c0.92 0 1.67-0.75 1.67-1.68v-4.33c0-0.92-0.75-1.67-1.67-1.67h-4.34c-0.92 0-1.67 0.75-1.67 1.67v4.33c0 0.93 0.75 1.68 1.67 1.68z"/>
				<path id="&lt;Path&gt;" class="s0" d="m35.17 15.29c0-0.84-0.68-1.52-1.52-1.52h-3.93c-0.84 0-1.52 0.68-1.52 1.52v3.93q0 0.2 0.05 0.38v4.95c0 1.91-1.54 3.45-3.45 3.45h-5.85-5.81-2.15c-1.91 0-3.45-1.54-3.45-3.45v-0.03-10.33-3.45c0-1.91 1.54-3.46 3.45-3.46h4.53q0.2 0.06 0.41 0.06h3.93c0.84 0 1.52-0.68 1.52-1.52v-3.92c0-0.84-0.68-1.52-1.52-1.52h-2.06-1.87-4.94c-5.72 0-10.36 4.64-10.36 10.36v3.45 10.33 0.03c0 5.72 4.64 10.36 10.36 10.36h2.15 5.81 5.85c5.72 0 10.36-4.64 10.36-10.36v-5.16q0.01-0.09 0.01-0.17z"/>
				<path id="&lt;Path&gt;" class="s2" d="m29.17 8.04h4.33c0.93 0 1.68-0.75 1.68-1.67v-4.34c0-0.92-0.75-1.67-1.68-1.67h-4.33c-0.93 0-1.68 0.75-1.68 1.67v4.34c0 0.92 0.75 1.67 1.68 1.67z"/>
			</g>
			<text id="novapatch
" style="transform: matrix(.5,0,0,.5,38.756,30.765)" >
				<tspan x="0" y="0" class="t3" dx="0 -3 -3 -3 -3 -3 -3 -3 -3 -3" >novapatch
</tspan>
			</text>
		</g>
	</g>
</svg>