<svg version="1.2" xmlns="http://www.w3.org/2000/svg" viewBox="0 0 48 48" width="48" height="48">
	<style>
		tspan { white-space:pre } 
		.s0 { fill: #005088 } 
	</style>
	<g id="Layer 1">
		<g id="&lt;Group&gt;">
			<path id="&lt;Compound Path&gt;" fill-rule="evenodd" class="s0" d="m44.59 3.38c4.29 4.39 4.36 11.36 0.2 15.86l-24.81 24.81c-11.15 9.65-25.92-5.11-16.27-16.27l24.81-24.8c4.63-4.25 11.68-4.09 16.07 0.4zm-1.34 14.14c7.24-8.62-3.65-20.09-12.64-13.32l-12.03 11.95 13.03 13.03zm-25.79 25.63c0.33-0.23 0.62-0.52 0.94-0.75l11.52-11.53-13.03-13.03-11.52 11.52c-7.38 8.05 3.06 20.17 12.09 13.79z"/>
			<path id="&lt;Path&gt;" class="s0" d="m41.46 5.73c0.47 0.49 0.56 1.51-0.25 1.68-0.5 0.1-1.52-0.45-2.1-0.6-1.97-0.5-4.05-0.41-5.84 0.63-1.22 0.71-2.05 1.88-3.06 2.82-0.1 0.1-0.54 0.48-0.63 0.52-0.89 0.41-2.08-0.94-1.41-1.77 2.44-2.65 4.6-4.68 8.47-4.6 1.04 0.02 4.1 0.58 4.82 1.32z"/>
		</g>
	</g>
</svg>