<svg viewBox="19.94027303754266 0 82.90955631399318 81.9" xmlns="http://www.w3.org/2000/svg" version="1.2" style="max-height: 500px" width="82.90955631399318" height="81.9">
	<style>
		tspan { white-space:pre } 
		.t0 { font-size: 38px;fill: #fef7ed;font-weight: 500;font-family: "Outfit-Medium", "Outfit" } 
		.s1 { fill: #fef7ed } 
	</style>
	<g id="Layer 1">
		<text style="transform: matrix(.5,0,0,.5,61.425,101.469)" id="Libre de gluten">
			<tspan class="t0" y="0" x="-125">Libre de gluten
</tspan>
		</text>
		<g id="&lt;Group&gt;">
			<g id="gluten_free">
				<path d="m99.45 27.96c9.84 30.43-18.19 59.69-49 50.98-29.5-8.33-39.1-46.01-16.77-67.3 21.36-20.36 56.71-11.74 65.77 16.32zm-12.54-14.95c-5.12-4.91-11.79-8.25-18.8-9.47-28.2-4.92-51.17 21.54-42.28 48.81 1.63 5.01 4.51 9.8 8.15 13.59l11.91-11.69v3.41l-10.02 10.17 2.84 2.52c16.46 12.3 39.72 9.25 52.31-6.91 11.19-14.37 10.37-35.35-2.22-48.54l-11.91 11.69v-3.42z" class="s1" fill-rule="evenodd" id="&lt;Compound Path&gt;"/>
				<path d="m62.61 72.79h-2.59v-8.89c-3.75-2.33-8.43-3.36-11.06-7.17-2.65-3.84-1.74-8.78-2.01-13.2 1.56 0.6 0.74-0.15 0.53-0.98-0.76-3.11-0.34-6.89-0.53-10.11l1.07 0.3-0.91-3.34-0.15-8.13 8.66 4.25c-1.05-2.66-1.1-5.48 0.22-8.06l5.48-9.41c1.52 2.65 3.2 5.26 4.66 7.95 1.25 2.3 2.06 3.96 1.79 6.71-0.09 0.98-0.6 1.85-0.75 2.81l8.66-4.25c-0.25 3.81 0.39 7.88-1.07 11.47l1.07-0.23c-0.19 3.22 0.18 6.91-0.53 10.04-0.04 0.19-0.7 1.37-0.16 1.21l0.69-0.3-0.15 7.83c-0.37 4.3-2.71 7.25-6.38 9.27-2.09 1.14-4.38 2.11-6.54 3.11zm-4.82-48.75c0.78 2.04 2.51 4.22 3.53 6.19 1.23-2.53 4-5.71 4.01-8.6 0-2.88-2.79-6.03-4.01-8.56-1.84 3.51-5.14 6.73-3.53 10.97zm14.74 7.23c0.65-1.85 0.33-3.95 0.56-5.9-1.9 0.93-3.94 1.75-5.77 2.81-3.64 2.11-4.55 4.59-4.71 8.67-0.01 0.34-0.11 1.87 0.23 1.89 2.24-1.47 5.23-2.29 7.3-4.01 0.9-0.74 2.01-2.36 2.39-3.46zm-22.3 0.33c1.62 4.14 6.12 5.04 9.57 7.14 0.15-0.1 0.19-0.2 0.22-0.37 0.11-0.62-0.18-3.94-0.34-4.67-1.07-5-6.16-6.3-10.14-8.33 0.06 2.04-0.07 4.32 0.69 6.23zm13.78 10.75c-1.46 2.27-1.36 4.87-1.4 7.49 0.06 0.07 0.72-0.21 0.86-0.28 2.19-1.01 6.37-2.98 7.8-4.81 1.88-2.41 1.7-5.22 1.82-8.13-0.21-0.05-0.37 0.04-0.56 0.12-1.65 0.67-5.9 2.77-7.13 3.88-0.4 0.36-1.09 1.25-1.39 1.73zm-12.64 2.4c1.34 1.67 6.02 4.22 8.09 4.97 0.19 0.07 0.35 0.16 0.56 0.12-0.18-1.28-0.04-2.6-0.15-3.87-0.47-5.66-5.99-7.29-10.33-9.35 0.07 2.9-0.08 5.75 1.83 8.13zm11.85 15.96c1.37-0.48 5.8-2.83 6.91-3.73 1.42-1.16 2.57-3.3 2.77-5.13 0.09-0.84 0.26-2.82 0.2-3.61-0.02-0.27 0.04-0.5-0.23-0.68-3.09 1.94-7.16 2.76-9.07 6.13-1.27 2.24-1.11 4.59-1.19 7.09q0.31 0.03 0.61-0.07zm-3.91-0.05c0.24 0.08 0.45 0.17 0.71 0.12-0.21-2.18 0.07-4.32-0.83-6.38-0.69-1.58-1.86-2.8-3.32-3.67-1.95-1.17-4.29-2.13-6.33-3.17 0.04 3.06-0.07 5.77 1.88 8.3 1.19 1.52 6.01 4.17 7.89 4.8z" class="s1" fill-rule="evenodd" id="&lt;Compound Path&gt;"/>
			</g>
		</g>
	</g>
</svg>