<svg version="1.2" xmlns="http://www.w3.org/2000/svg" viewBox="0 0 76 77" width="76" height="77">
	<style>
		tspan { white-space:pre } 
		.s0 { fill: #fef7ed } 
	</style>
	<g id="Layer 1">
		<g id="&lt;Group&gt;">
			<g id="&lt;Group&gt;">
				<path id="&lt;Path&gt;" class="s0" d="m75.24 43.85c-0.19 0.2-0.59 0.34-0.83 0.5h-72.61c-1.64-0.6-1.73-2.54-0.28-3.46l72.58-0.11c1.46 0.06 2.15 2.04 1.14 3.07z"/>
				<path id="&lt;Path&gt;" class="s0" d="m50.55 49.84v2.12h-5.16c-0.08 0-0.24 0.23-0.22 0.35v2.19h4.46c0.36 0.51-0.15 1.31 0.21 1.98h-4.45l-0.22 0.21v2.48h5.38c0.01 0.49-0.03 0.99 0 1.49 0 0.16-0.1 0.38 0.14 0.35l3.2-5.59-3.2-5.58h2.33l2.05 3.53 2.19-3.53h2.34l-3.21 5.58 3.35 5.87h-2.34l-2.26-3.67-2.26 3.67h-9.83v-11.45z"/>
				<path id="&lt;Path&gt;" class="s0" d="m37.36-0.04c6.53-0.89 7.31 8.9 1.09 9.29-6.09 0.38-6.73-8.53-1.09-9.29z"/>
				<path id="&lt;Path&gt;" class="s0" d="m20.96-0.04c6.32-0.86 7.3 8.6 1.22 9.28-6.07 0.67-7.1-8.49-1.22-9.28z"/>
				<path id="&lt;Path&gt;" class="s0" d="m29.58 13.67c6.79-0.88 7.1 9.83 0.25 9.3-5.51-0.43-5.59-8.6-0.25-9.3z"/>
				<path id="&lt;Path&gt;" class="s0" d="m45.42 13.68c6.25-0.69 7.06 8.81 0.95 9.29-6.14 0.47-6.88-8.65-0.95-9.29z"/>
				<path id="&lt;Path&gt;" class="s0" d="m53.91-0.04c6.3-0.83 7.18 8.62 1.22 9.28-6.11 0.67-7.19-8.5-1.22-9.28z"/>
				<path id="&lt;Compound Path&gt;" fill-rule="evenodd" class="s0" d="m35.2 65.53c2.96 0.49 3.42 5.34 0.5 6.43l2.54 4.88h-2.47l-2.23-4.48c-0.55-0.31-1.22-0.2-1.8-0.04v4.52h-2.12v-11.31c1.68 0.2 3.98-0.26 5.58 0zm-3.46 4.67h2.9c0.11 0 0.61-0.43 0.7-0.57 0.41-0.64 0.2-2.12-0.56-2.12h-3.04z"/>
				<path id="&lt;Path&gt;" class="s0" d="m42.76 30.32c-1.47 0.1-2.26 1.59-1.4 2.83l0.28-0.08c0.28-0.43-0.15-0.69-0.14-1.11 0.02-0.67 0.6-1.17 1.27-1.07-0.05 1.13-0.72 2.42-1.55 3.18-0.42 0.38-0.71 0.6-1.28 0.35l0.14 0.43c-0.44 0.07-0.64-0.31-0.92-0.57l-0.21 0.28-0.14-0.7 0.42 0.14-0.14-0.71c0.45 0.2 0.59-0.45 1.13-0.42l-0.28 0.84 0.57 0.15v-1.42c-1.32-0.22-2.08 1.11-1.7 2.26-0.28 0.08-0.27-0.11-0.4-0.23-0.39-0.39-0.78-1-1.16-1.39-0.13-0.14-0.18-0.27-0.42-0.21-0.23 0.92 0.38 0.86 0.71 1.48l-0.85 0.36 0.28 0.28c-3.29-0.55-4.61-4.68-2.54-7.28 2.69-3.39 8.06-1.63 8.33 2.61z"/>
				<path id="&lt;Path&gt;" class="s0" d="m55.64 65.53v1.98h-5.23v2.48l0.21 0.21h3.96c0.03 0 0.11-0.17 0.21-0.08 0.22 0.14 0.27 1.81-0.07 2.06h-4.31v2.68h5.23v1.98h-7.36v-11.31z"/>
				<path id="&lt;Path&gt;" class="s0" d="m46.73 65.53l0.14 1.98c-0.19 0.15-4.18-0.09-4.89-0.01-0.2 0.03-0.36 0.02-0.48 0.22v2.48h4.52v1.98h-4.52v2.47c0.12 0.2 0.28 0.2 0.48 0.22 1.48 0.18 3.25-0.16 4.75-0.01v1.98h-7.35v-11.31z"/>
				<path id="&lt;Compound Path&gt;" fill-rule="evenodd" class="s0" d="m25.24 61.29l4.11-11.44 1.62-0.02 4.3 11.46h-2.19l-0.94-2.38-3.81 0.06-0.69 2.32zm6.22-4.38c-0.31-0.97-0.57-2.29-0.98-3.19-0.07-0.14-0.1-0.33-0.29-0.35l-1.13 3.54z"/>
				<path id="&lt;Path&gt;" class="s0" d="m28.49 65.53v1.98h-5.23v2.69h4.52v2.12c-0.1 0.04-0.17-0.14-0.21-0.14h-4.1l-0.21 0.21v4.45h-2.13v-11.31z"/>
				<path id="&lt;Path&gt;" class="s0" d="m42.06 49.84v1.98h-2.76l-0.21 0.21v9.26h-2.05l-0.06-9.24c-0.09-0.35-2.58-0.31-2.98-0.09-0.06-0.09-0.14-1.95 0.07-2.12z"/>
				<path id="&lt;Path&gt;" class="s0" d="m19.72 49.84v9.12l0.21 0.21h5.16v2.12h-7.49v-11.45z"/>
				<path id="&lt;Path&gt;" class="s0" d="m43 30.5c0 2.76-2.24 5-5 5-2.76 0-5-2.24-5-5 0-2.76 2.24-5 5-5 2.76 0 5 2.24 5 5z"/>
			</g>
		</g>
	</g>
</svg>