<svg viewBox="0 0 86.41247002398082 83.224" xmlns="http://www.w3.org/2000/svg" version="1.2" style="max-height: 500px" width="86.41247002398082" height="83.224">
	<style>
		tspan { white-space:pre } 
		.t0 { font-size: 38px;line-height: 40px;fill: #fef7ed;font-weight: 500;font-family: "Outfit-Medium", "Outfit" } 
		.s1 { fill: #fef7ed } 
	</style>
	<g id="Layer 1">
		<text style="transform: matrix(.5,0,0,.5,43.138,102.469)" id="Sin azúcar">
			<tspan class="t0" y="0" x="-86.8">Sin azúcar
</tspan>
		</text>
		<g id="sin azucar">
			<path d="m41.31 0.69c32.7-1.46 53.77 34.61 36.25 62.41-16.27 25.81-54.67 25.06-69.76-1.48-15.1-26.54 3.13-59.56 33.51-60.93zm28 12.95c0.11-0.11 0.3-0.11 0.23-0.35-0.05-0.21-2.06-1.88-2.4-2.14-17-13.55-41.95-10.23-54.93 7.08-10.57 14.1-10.15 34.04 1.08 47.62 0.25 0.3 1.62 1.94 1.84 1.94l10.57-10.49c1.11-0.43 1.87 0.37 1.47 1.48l-10.44 10.43c-0.14 0.26 0.24 0.53 0.43 0.7 10.5 9.95 26.88 12.59 40.24 7.3 23.65-9.37 31.93-39.13 16.31-59.41-0.31-0.4-2.33-2.88-2.6-2.88l-10.57 10.48c-1.05 0.49-2.03-0.49-1.42-1.52 3.25-3.5 6.99-6.7 10.19-10.24z" class="s1" fill-rule="evenodd" id="&lt;Compound Path&gt;"/>
			<path d="m20.3 32.65l14.19-8.15 0.67 0.17 9.25 5.38 0.18-0.07c0.8-0.92 1.56-2.03 2.4-2.89 0.25-0.26 0.5-0.6 0.9-0.62l15.74 2.77 0.59 0.36c1.63 4.61 3.48 9.18 5.05 13.82 0.24 0.72 0.71 1.54 0.23 2.22l-10.1 11.98c-0.59 0.53-1.59 0.19-2.33 0.08-4.73-0.73-9.43-1.8-14.16-2.55-0.67-0.17-0.62-0.93-0.97-1.39l-7.09 4.06-0.61-0.04-13.62-7.81c-0.4-0.26-0.62-0.68-0.63-1.16l0.06-15.71zm25.65 0.82l-11.38-6.6-11.37 6.6 11.38 6.48zm15.38-2.45l-12.52-2.26-0.46 0.08-1.93 2.32c0.55 0.53 2.55 1.19 2.72 1.91l0.06 7.3c0.1 0.14 3.11 0.66 3.41 0.66 0.14 0 0.26 0.01 0.37-0.09zm1.7 1.41l-8.48 9.98 4.47 12.3 8.44-9.97zm-40.88 2.83v13.08l11.42 6.56c-0.34-4.31 0.19-8.67-0.09-12.98l-0.1-0.19zm13.5 6.51v13.13l11.34-6.49c0.18-0.27-0.01-0.54-0.01-0.83q-0.05-4.39 0-8.78c0.01-1.16 0.29-2.42-0.04-3.54l-7.54 4.36c-0.57 0.62-1.02 0.68-1.66 0.98-0.68 0.32-1.38 0.87-2.09 1.17zm13.5 0.85v6.66c0 0.05-0.28 0.5-0.38 0.56l-4.81 2.75c-0.16 0.1-0.02 0.46 0.1 0.56l12.93 2.31-4.44-12.21c-0.05-0.12-0.14-0.12-0.24-0.15-0.48-0.16-2-0.41-2.55-0.46q-0.31-0.03-0.61-0.02z" class="s1" fill-rule="evenodd" id="&lt;Compound Path&gt;"/>
		</g>
	</g>
</svg>