<svg viewBox="9.88909090909091 0 89.80909090909091 68.27600000000001" xmlns="http://www.w3.org/2000/svg" version="1.2" style="max-height: 500px" width="89.80909090909091" height="68.27600000000001">
	<style>
		tspan { white-space:pre } 
		.t0 { font-size: 38px;fill: #fef7ed;font-weight: 500;font-family: "Outfit-Medium", "Outfit" } 
		.s1 { fill: #fef7ed } 
	</style>
	<g id="Layer 1">
		<text style="transform: matrix(.5,0,0,.5,55.043,97.469)" id="100% vegano">
			<tspan class="t0" y="0" x="-110.6">100% vegano
</tspan>
		</text>
		<g id="&lt;Group&gt;">
			<g id="vegano">
				<path d="m98.54 5.6c-1.85 10.09-1.69 21.05-3.86 30.99-2.63 12.09-10.24 23.31-21.95 28.11-5.34 2.2-14.08 3.92-19.77 2.87-2.6-0.47-0.82-2.2-1.01-3.74-0.27-2.19-4.22-8.01-4.64-10.86-10.49-1.2-19.37-6.7-24.92-15.61-6.84-10.96-6.66-24.58-10.85-36.53 17.88 1.51 36.61 7.24 47.97 21.9 11.27-9.02 25.09-13.86 39.03-17.13zm-67.33 10.73c2.63 0.99 5.23 3.04 7.43 4.78 4.54 3.58 8.31 8.05 12.54 11.79 3.39-4.94 7.89-4.96 3.25-10.9-7.88-10.09-25.79-15.99-38.12-16.99 3.62 18.84 7.37 42.44 30.99 44.09 0.11-2.04-0.21-4.16 0.06-6.19 0.2-1.54 2.15-6.46 2.01-6.92-0.39-1.33-6.38-8.68-7.73-10.14-3.22-3.49-7.11-6.16-10.43-9.52zm24.43 47.67h8.64c2.63 0 10.99-4.01 13.37-5.7 14.54-10.3 15.12-29.67 16.72-45.86 0.06-0.61 0.26-2.05-0.3-2.08-19.97 4.45-53.62 21.24-41.11 46.48 5.42-10.22 12-19.86 20.55-27.71l5.97-4.46c-10.89 10.92-20.31 24.03-23.84 39.33z" class="s1" fill-rule="evenodd" id="&lt;Compound Path&gt;"/>
			</g>
		</g>
	</g>
</svg>