<svg viewBox="0 0 97.77393617021278 81.012" xmlns="http://www.w3.org/2000/svg" version="1.2" style="max-height: 500px" width="97.77393617021278" height="81.012">
	<style>
		tspan { white-space:pre } 
		.t0 { font-size: 38px;line-height: 40px;fill: #fef7ed;font-weight: 500;font-family: "Outfit-Medium", "Outfit" } 
		.s1 { fill: #fef7ed } 
	</style>
	<g id="Layer 1">
		<text style="transform: matrix(.5,0,0,.5,48.265,105.469)" id="Resistente&#xA;al agua">
			<tspan class="t0" y="0" x="-86.8">Resistente
</tspan>
			<tspan class="t0" y="40" x="-62">al agua
</tspan>
		</text>
		<g id="&lt;Group&gt;">
			<g id="wather_prof">
				<path d="m14.85 57.63c1.24-0.16 2.54 0.22 2.7 1.63 0.15 1.35-0.53 2.01-1.73 2.39-3.31 1.05-8.1 1.8-10.79 4.13-1.39 1.2-0.99 1.68 0.36 2.71 4.49 3.42 16.78 5.21 22.49 5.86 12.79 1.45 26.71 1.49 39.52 0.15 5.83-0.61 19.84-2.57 24.17-6.32 1.48-1.28 0.76-1.9-0.63-2.84-3.09-2.1-6.42-2.37-9.73-3.58-2.45-0.89-1.83-4.39 1.18-3.97 3.62 0.5 11.62 3.44 13.49 6.74 3.58 6.29-6.61 9.77-10.94 11-10.23 2.9-21.46 3.63-32.05 3.89-13.05 0.33-28.33-0.26-40.93-3.79-4.57-1.27-15.87-5.21-10.76-11.82 2.21-2.87 10.1-5.73 13.65-6.18z" class="s1" id="&lt;Path&gt;"/>
				<path d="m46.67 5.71c1.28-0.27 1.83 0.18 2.63 1.03 4.28 4.49 11.64 15.08 13.41 20.93 4.69 15.47-16.24 26.52-27.39 14.35-9.24-10.08-0.67-21.56 5.87-30.21 1.12-1.48 3.11-4.3 4.4-5.45 0.24-0.22 0.77-0.59 1.08-0.65zm0.63 4.1c-4.12 5.19-8.76 10.8-11.4 16.94-5.8 13.45 12.21 23.14 21.18 12.4 5.45-6.52 1.8-12.93-2.07-18.95-2.33-3.63-5.02-7.03-7.71-10.39z" class="s1" fill-rule="evenodd" id="&lt;Compound Path&gt;"/>
				<path d="m73.2 55.47c-6.53 3.1-13.58 5.39-20.84 5.98-10.44 0.87-23.83-1.63-32.72-7.34-1.21-0.78-2.48-1.74-1.54-3.35 1.35-2.31 4.13 0.23 5.7 1.05 14.69 7.58 32.2 7.67 47 0.33 0.03-0.19-0.24-0.2-0.37-0.23-1.68-0.4-3.57-0.48-5.23-0.9-2.61-0.66-2.17-4.03 0.45-4.05 3.67 0.91 7.81 1.09 11.44 2.02 1.17 0.3 1.82 1.01 1.8 2.26l-3.85 11.2c-1.03 2.01-3.81 1.26-3.85-0.92z" class="s1" id="&lt;Path&gt;"/>
				<path d="m20.58 0.51c0.45-0.06 1.14 0.17 1.49 0.45 1.14 0.93 3.48 4.33 4.43 5.68 3.76 5.39 7.52 11.74 1.84 17.48-6.69 6.76-18.74 1.6-17.84-7.99 0.34-3.71 5.17-10.37 7.58-13.31 0.59-0.72 1.58-2.18 2.5-2.31zm0.43 3.57c-0.19-0.04-0.22 0.03-0.34 0.13-0.41 0.36-1.18 1.5-1.58 2.01-1.72 2.24-5.77 7.98-5.81 10.71-0.02 1.54 0.7 3.4 1.67 4.59 5.32 6.49 16.23 0.86 12.61-7.55-1.54-3.55-4.37-6.75-6.55-9.89z" class="s1" fill-rule="evenodd" id="&lt;Compound Path&gt;"/>
			</g>
		</g>
	</g>
</svg>